<?xml version="1.0" standalone="no"?>
<!DOCTYPE svg PUBLIC "-//W3C//DTD SVG 20010904//EN"
 "http://www.w3.org/TR/2001/REC-SVG-20010904/DTD/svg10.dtd">
<svg version="1.0" xmlns="http://www.w3.org/2000/svg"
 width="256.000000pt" height="256.000000pt" viewBox="0 0 256.000000 256.000000"
 preserveAspectRatio="xMidYMid meet">

<g transform="translate(0.000000,256.000000) scale(0.100000,-0.100000)"
fill="#000000" stroke="none">
<path d="M2 1783 l3 -778 344 1 c279 1 339 -1 320 -12 -13 -6 -107 -39 -208
-73 -167 -55 -186 -59 -205 -46 -32 23 -49 19 -43 -11 4 -24 -1 -29 -61 -56
-37 -17 -78 -31 -91 -33 -14 -1 -33 -13 -43 -25 -17 -20 -18 -50 -18 -386 l0
-364 708 4 c389 2 718 4 732 4 14 0 271 -2 573 -4 l547 -4 0 215 c0 180 -3
230 -21 307 -20 91 -39 128 -65 128 -8 0 -69 31 -136 69 -127 72 -282 143
-450 206 -157 59 -151 65 63 65 101 0 225 5 274 11 122 15 146 17 248 18 l87
1 0 770 0 770 -1280 0 -1280 0 2 -777z m1536 316 c23 -8 32 -20 44 -62 9 -29
20 -72 23 -97 7 -38 6 -43 -7 -32 -20 16 -71 16 -153 -2 -60 -12 -71 -13 -78
0 -14 24 -28 16 -21 -13 6 -22 4 -25 -10 -20 -10 4 -20 7 -22 7 -3 0 -2 5 1
10 11 17 -17 11 -30 -7 -12 -15 -16 -16 -39 -4 -29 16 -34 45 -12 67 19 18 36
18 36 0 0 -8 5 -18 12 -22 8 -5 9 3 4 32 -4 21 -8 46 -8 54 -1 8 -9 21 -20 28
-41 29 0 58 65 45 23 -5 29 -2 34 17 6 22 9 22 79 16 40 -4 86 -11 102 -17z
m-469 -65 c-13 -16 -12 -16 10 -5 19 11 28 11 47 0 16 -8 20 -15 13 -20 -9 -5
-5 -21 13 -57 20 -40 22 -49 9 -44 -13 5 -14 3 -3 -10 11 -14 8 -17 -19 -27
-18 -6 -43 -11 -56 -11 -13 0 -36 -8 -51 -17 -43 -28 -55 -53 -26 -53 12 0 14
-5 9 -17 -17 -39 -17 -60 -1 -66 10 -4 19 -1 22 8 7 18 35 20 52 3 17 -17 -4
-38 -42 -39 -30 -1 -30 -1 -6 -9 14 -4 18 -9 10 -9 -12 -1 -11 -4 3 -12 9 -5
21 -8 26 -5 10 7 21 -17 21 -45 0 -10 5 -19 10 -19 15 0 12 -27 -5 -54 -20
-30 -31 -111 -16 -120 7 -5 11 3 12 21 1 27 1 26 9 -6 8 -33 64 -100 75 -90 3
3 0 20 -6 38 -6 18 -9 34 -7 37 3 2 21 -2 41 -11 20 -8 37 -11 39 -5 2 5 12 7
23 4 23 -6 50 -57 42 -78 -3 -8 5 -22 19 -32 27 -21 31 -51 10 -79 -7 -10 -11
-26 -9 -35 3 -12 -3 -19 -20 -24 -18 -4 -27 -15 -32 -37 -9 -41 -3 -44 36 -19
19 11 63 29 99 41 73 23 113 45 105 59 -4 6 -15 10 -26 10 -12 0 -28 14 -40
35 -12 19 -25 35 -30 35 -5 0 -9 7 -9 15 0 8 4 15 8 15 4 0 13 13 19 29 8 23
8 34 -3 50 -16 22 -3 37 23 27 11 -5 26 4 45 24 20 23 34 30 48 25 15 -5 20
-2 20 13 0 27 -34 34 -49 11 -8 -14 -23 -19 -60 -19 -49 0 -72 12 -51 25 8 5
6 13 -6 26 -16 18 -16 19 3 19 11 0 26 7 33 15 13 16 3 19 -47 15 -13 -1 -23
3 -23 9 0 6 -4 11 -10 11 -5 0 -10 -14 -10 -30 0 -28 -2 -30 -21 -19 -16 8
-28 8 -47 0 -30 -14 -42 -5 -46 35 -2 16 -5 29 -6 29 -1 0 -3 22 -6 50 -3 39
1 54 17 71 14 15 20 32 17 56 -3 30 0 33 25 36 15 2 27 8 27 13 0 5 4 9 9 9
13 0 71 -62 71 -76 0 -20 63 -36 94 -25 26 10 36 31 15 31 -19 0 18 29 46 36
25 6 27 10 22 45 -5 38 4 49 28 31 10 -7 42 -115 53 -176 2 -16 14 -38 25 -49
l20 -20 -7 26 c-5 21 -3 25 9 21 8 -4 15 -1 15 7 0 7 2 10 5 7 6 -6 -14 -68
-28 -86 -8 -10 -12 -9 -22 4 -18 26 -23 1 -16 -81 9 -98 -3 -158 -43 -226 -34
-57 -35 -61 -35 -169 -1 -145 -20 -192 -124 -302 -31 -34 -40 -38 -52 -28 -8
7 -15 21 -15 31 0 11 -4 19 -9 19 -5 0 -8 8 -6 18 1 9 -8 32 -22 50 -13 17
-19 32 -14 32 6 0 11 7 11 16 0 18 -34 15 -36 -4 -1 -6 -2 -14 -3 -17 0 -3
-14 1 -31 10 -16 8 -32 15 -35 15 -14 -1 -65 32 -73 48 -5 9 -9 43 -10 75 -2
72 -6 79 -44 75 -27 -3 -33 2 -52 39 -11 23 -27 43 -33 43 -7 0 -13 5 -13 10
0 6 -4 10 -8 10 -4 0 -8 -18 -7 -40 0 -22 3 -40 6 -40 10 0 0 -63 -11 -74 -6
-6 -10 -7 -10 -2 0 56 -51 289 -72 332 -16 30 -14 59 3 48 15 -9 10 20 -11 61
-24 48 -25 56 -4 48 13 -5 15 -2 9 15 -4 14 -2 22 5 22 7 0 9 7 5 18 -18 48
-22 103 -8 117 10 10 11 15 2 15 -9 0 -9 3 0 14 9 11 8 28 -4 74 -8 33 -15 76
-15 95 0 30 4 37 30 46 17 5 30 15 30 20 0 6 16 11 35 11 21 0 35 -5 35 -12 0
-9 3 -10 8 -2 8 12 34 23 41 18 2 -2 -2 -11 -10 -20z m-159 -202 c0 -15 -2
-15 -10 -2 -13 20 -13 33 0 25 6 -3 10 -14 10 -23z m187 -99 c-3 -3 -11 -2
-17 2 -9 6 -9 10 1 16 14 8 27 -7 16 -18z m610 5 c-3 -8 -6 -5 -6 6 -1 11 2
17 5 13 3 -3 4 -12 1 -19z m-467 -253 c0 -21 5 -25 33 -26 l32 0 -32 -16 c-18
-9 -33 -19 -33 -23 0 -3 -16 -4 -36 -2 -32 4 -35 7 -29 30 6 23 41 61 58 62 4
0 7 -11 7 -25z m180 -276 c0 -5 -7 -9 -15 -9 -9 0 -15 9 -15 21 0 18 2 19 15
9 8 -7 15 -16 15 -21z m-400 -109 c0 -5 -5 -10 -11 -10 -5 0 -7 5 -4 10 3 6 8
10 11 10 2 0 4 -4 4 -10z"/>
<path d="M1347 1611 c3 -12 11 -17 19 -14 11 4 11 7 -1 19 -19 19 -24 18 -18
-5z"/>
<path d="M1460 1616 c0 -15 24 -34 83 -66 31 -17 36 -23 55 -70 10 -24 11 -24
11 8 1 45 -12 66 -62 100 -55 38 -87 48 -87 28z"/>
<path d="M1245 1140 c3 -5 11 -10 16 -10 6 0 7 5 4 10 -3 6 -11 10 -16 10 -6
0 -7 -4 -4 -10z"/>
<path d="M1286 1047 c3 -10 9 -15 12 -12 3 3 0 11 -7 18 -10 9 -11 8 -5 -6z"/>
</g>
</svg>
